{
  "version": "1.1.6",
  "modules": [
    {
      "id": 1,
      "plugin": "Core",
      "version": "1.1.6",
      "model": "AudioInterface",
      "params": [],
      "leftModuleId": 7,
      "data": {
        "audio": {
          "driver": 5,
          "deviceName": "Apple Inc.: Built-in Output",
          "offset": 0,
          "maxChannels": 8,
          "sampleRate": 44100,
          "blockSize": 256
        }
      },
      "pos": [
        90,
        0
      ]
    },
    {
      "id": 2,
      "plugin": "Fundamental",
      "version": "1.4.0",
      "model": "VCMixer",
      "params": [
        {
          "id": 0,
          "value": 1.0
        },
        {
          "id": 1,
          "value": 1.07636714
        },
        {
          "id": 2,
          "value": 1.0
        },
        {
          "id": 3,
          "value": 1.0
        },
        {
          "id": 4,
          "value": 1.0
        }
      ],
      "leftModuleId": 18,
      "rightModuleId": 13,
      "pos": [
        70,
        1
      ]
    },
    {
      "id": 3,
      "plugin": "Fundamental",
      "version": "1.4.0",
      "model": "VCO",
      "params": [
        {
          "id": 0,
          "value": 0.0
        },
        {
          "id": 1,
          "value": 0.0
        },
        {
          "id": 2,
          "value": -15.173975
        },
        {
          "id": 3,
          "value": -0.22800003
        },
        {
          "id": 4,
          "value": 0.00600000005
        },
        {
          "id": 5,
          "value": 0.293219775
        },
        {
          "id": 6,
          "value": 0.207000032
        }
      ],
      "leftModuleId": 15,
      "rightModuleId": 4,
      "pos": [
        51,
        0
      ]
    },
    {
      "id": 4,
      "plugin": "Fundamental",
      "version": "1.4.0",
      "model": "VCF",
      "params": [
        {
          "id": 0,
          "value": 0.49600631
        },
        {
          "id": 1,
          "value": 0.507499933
        },
        {
          "id": 2,
          "value": 0.781500161
        },
        {
          "id": 3,
          "value": -0.375999868
        },
        {
          "id": 4,
          "value": 0.697000384
        }
      ],
      "leftModuleId": 3,
      "rightModuleId": 6,
      "pos": [
        61,
        0
      ]
    },
    {
      "id": 5,
      "plugin": "Core",
      "version": "1.1.6",
      "model": "MIDIToCVInterface",
      "params": [],
      "data": {
        "channels": 1,
        "polyMode": 0,
        "clockDivision": 24,
        "lastPitch": 8192,
        "lastMod": 127,
        "midi": {
          "driver": 1,
          "channel": -1
        }
      },
      "pos": [
        0,
        0
      ]
    },
    {
      "id": 6,
      "plugin": "Fundamental",
      "version": "1.4.0",
      "model": "ADSR",
      "params": [
        {
          "id": 0,
          "value": 0.500500441
        },
        {
          "id": 1,
          "value": 0.823499441
        },
        {
          "id": 2,
          "value": 0.584499896
        },
        {
          "id": 3,
          "value": 0.540500343
        }
      ],
      "leftModuleId": 4,
      "rightModuleId": 7,
      "pos": [
        69,
        0
      ]
    },
    {
      "id": 7,
      "plugin": "Fundamental",
      "version": "1.4.0",
      "model": "Scope",
      "params": [
        {
          "id": 0,
          "value": -1.0
        },
        {
          "id": 1,
          "value": -5.09999657
        },
        {
          "id": 2,
          "value": -1.0
        },
        {
          "id": 3,
          "value": -7.95000076
        },
        {
          "id": 4,
          "value": 10.880003
        },
        {
          "id": 5,
          "value": 0.0
        },
        {
          "id": 6,
          "value": 2.82000041
        },
        {
          "id": 7,
          "value": 0.0
        }
      ],
      "leftModuleId": 6,
      "rightModuleId": 1,
      "data": {
        "lissajous": 0,
        "external": 0
      },
      "pos": [
        77,
        0
      ]
    },
    {
      "id": 10,
      "plugin": "Fundamental",
      "version": "1.4.0",
      "model": "8vert",
      "params": [
        {
          "id": 0,
          "value": -0.657999814
        },
        {
          "id": 1,
          "value": 0.0
        },
        {
          "id": 2,
          "value": 0.0
        },
        {
          "id": 3,
          "value": 0.0
        },
        {
          "id": 4,
          "value": 0.0
        },
        {
          "id": 5,
          "value": 0.0
        },
        {
          "id": 6,
          "value": 0.0
        },
        {
          "id": 7,
          "value": 0.0
        }
      ],
      "pos": [
        116,
        0
      ]
    },
    {
      "id": 11,
      "plugin": "Fundamental",
      "version": "1.4.0",
      "model": "LFO",
      "params": [
        {
          "id": 0,
          "value": 1.0
        },
        {
          "id": 1,
          "value": 0.0
        },
        {
          "id": 2,
          "value": 3.95199919
        },
        {
          "id": 3,
          "value": 0.169500008
        },
        {
          "id": 4,
          "value": 0.324000061
        },
        {
          "id": 5,
          "value": 0.361820042
        },
        {
          "id": 6,
          "value": 0.0
        }
      ],
      "leftModuleId": 22,
      "rightModuleId": 18,
      "pos": [
        52,
        1
      ]
    },
    {
      "id": 12,
      "plugin": "Fundamental",
      "version": "1.4.0",
      "model": "SEQ3",
      "params": [
        {
          "id": 0,
          "value": 1.96399975
        },
        {
          "id": 1,
          "value": 0.0
        },
        {
          "id": 2,
          "value": 0.0
        },
        {
          "id": 3,
          "value": 8.0
        },
        {
          "id": 4,
          "value": 1.88999999
        },
        {
          "id": 5,
          "value": 2.34000063
        },
        {
          "id": 6,
          "value": 2.40000415
        },
        {
          "id": 7,
          "value": 2.95500541
        },
        {
          "id": 8,
          "value": 2.08500028
        },
        {
          "id": 9,
          "value": 2.86499977
        },
        {
          "id": 10,
          "value": 2.7900002
        },
        {
          "id": 11,
          "value": 2.46000075
        },
        {
          "id": 12,
          "value": 2.15999985
        },
        {
          "id": 13,
          "value": 2.63999724
        },
        {
          "id": 14,
          "value": 2.47500086
        },
        {
          "id": 15,
          "value": 6.6150012
        },
        {
          "id": 16,
          "value": 6.96000242
        },
        {
          "id": 17,
          "value": 4.31999874
        },
        {
          "id": 18,
          "value": 6.0600009
        },
        {
          "id": 19,
          "value": 1.20000052
        },
        {
          "id": 20,
          "value": 1.95999944
        },
        {
          "id": 21,
          "value": 1.75499988
        },
        {
          "id": 22,
          "value": 9.37499905
        },
        {
          "id": 23,
          "value": 2.36999941
        },
        {
          "id": 24,
          "value": 4.45499992
        },
        {
          "id": 25,
          "value": 2.69999981
        },
        {
          "id": 26,
          "value": 5.02500057
        },
        {
          "id": 27,
          "value": 2.3099997
        },
        {
          "id": 28,
          "value": 0.0
        },
        {
          "id": 29,
          "value": 0.0
        },
        {
          "id": 30,
          "value": 0.0
        },
        {
          "id": 31,
          "value": 0.0
        },
        {
          "id": 32,
          "value": 0.0
        },
        {
          "id": 33,
          "value": 0.0
        },
        {
          "id": 34,
          "value": 0.0
        },
        {
          "id": 35,
          "value": 0.0
        }
      ],
      "leftModuleId": 17,
      "rightModuleId": 16,
      "data": {
        "running": false,
        "gates": [
          1,
          1,
          1,
          1,
          1,
          1,
          1,
          1
        ]
      },
      "pos": [
        22,
        0
      ]
    },
    {
      "id": 13,
      "plugin": "VCV-Recorder",
      "version": "1.1.0",
      "model": "Recorder",
      "params": [
        {
          "id": 0,
          "value": 1.48164439
        },
        {
          "id": 1,
          "value": 0.0
        }
      ],
      "leftModuleId": 2,
      "data": {
        "format": "wav",
        "path": "/Users/celinaquinones/Documents/Rack/beep boop beep.wav",
        "incrementPath": true,
        "sampleRate": 44100,
        "depth": 16,
        "bitRate": 256000,
        "videoBitRate": 2048000
      },
      "pos": [
        80,
        1
      ]
    },
    {
      "id": 15,
      "plugin": "Bogaudio",
      "version": "1.1.37",
      "model": "Bogaudio-Slew",
      "params": [
        {
          "id": 0,
          "value": 0.495999813
        },
        {
          "id": 1,
          "value": 0.0
        },
        {
          "id": 2,
          "value": 0.595500588
        },
        {
          "id": 3,
          "value": -0.00400000252
        },
        {
          "id": 4,
          "value": 0.0
        }
      ],
      "leftModuleId": 16,
      "rightModuleId": 3,
      "data": {},
      "pos": [
        48,
        0
      ]
    },
    {
      "id": 16,
      "plugin": "JW-Modules",
      "version": "1.0.24",
      "model": "Quantizer",
      "params": [
        {
          "id": 0,
          "value": 2.0
        },
        {
          "id": 1,
          "value": 6.0
        },
        {
          "id": 2,
          "value": -1.0
        }
      ],
      "leftModuleId": 12,
      "rightModuleId": 15,
      "data": {},
      "pos": [
        44,
        0
      ]
    },
    {
      "id": 17,
      "plugin": "Fundamental",
      "version": "1.4.0",
      "model": "Random",
      "params": [
        {
          "id": 0,
          "value": 2.49486303
        },
        {
          "id": 1,
          "value": 0.419999987
        },
        {
          "id": 2,
          "value": 1.0
        },
        {
          "id": 3,
          "value": 1.0
        }
      ],
      "rightModuleId": 12,
      "pos": [
        17,
        0
      ]
    },
    {
      "id": 18,
      "plugin": "Fundamental",
      "version": "1.4.0",
      "model": "8vert",
      "params": [
        {
          "id": 0,
          "value": 0.431000024
        },
        {
          "id": 1,
          "value": -0.0239998158
        },
        {
          "id": 2,
          "value": 0.150000513
        },
        {
          "id": 3,
          "value": 0.0
        },
        {
          "id": 4,
          "value": 0.0
        },
        {
          "id": 5,
          "value": 0.0
        },
        {
          "id": 6,
          "value": 0.0
        },
        {
          "id": 7,
          "value": 0.0
        }
      ],
      "leftModuleId": 11,
      "rightModuleId": 2,
      "pos": [
        62,
        1
      ]
    },
    {
      "id": 19,
      "plugin": "JW-Modules",
      "version": "1.0.24",
      "model": "SimpleClock",
      "params": [
        {
          "id": 0,
          "value": -0.296000749
        },
        {
          "id": 1,
          "value": 0.0
        },
        {
          "id": 2,
          "value": 3.90400004
        },
        {
          "id": 3,
          "value": 0.0
        }
      ],
      "leftModuleId": 20,
      "rightModuleId": 22,
      "data": {
        "clockMult": 1,
        "running": true
      },
      "pos": [
        38,
        1
      ]
    },
    {
      "id": 20,
      "plugin": "AudibleInstruments",
      "version": "1.5.0",
      "model": "Branches",
      "params": [
        {
          "id": 0,
          "value": 0.529500067
        },
        {
          "id": 1,
          "value": 0.704000175
        },
        {
          "id": 2,
          "value": 0.0
        },
        {
          "id": 3,
          "value": 0.0
        }
      ],
      "leftModuleId": 21,
      "rightModuleId": 19,
      "data": {
        "modes": [
          false,
          false
        ]
      },
      "pos": [
        32,
        1
      ]
    },
    {
      "id": 21,
      "plugin": "Fundamental",
      "version": "1.4.0",
      "model": "SequentialSwitch1",
      "params": [
        {
          "id": 0,
          "value": 0.0
        }
      ],
      "rightModuleId": 20,
      "pos": [
        29,
        1
      ]
    },
    {
      "id": 22,
      "plugin": "Fundamental",
      "version": "1.4.0",
      "model": "LFO",
      "params": [
        {
          "id": 0,
          "value": 1.0
        },
        {
          "id": 1,
          "value": 1.0
        },
        {
          "id": 2,
          "value": -1.01600766
        },
        {
          "id": 3,
          "value": 0.307500005
        },
        {
          "id": 4,
          "value": 0.273000002
        },
        {
          "id": 5,
          "value": 0.206980005
        },
        {
          "id": 6,
          "value": 0.344999999
        }
      ],
      "leftModuleId": 19,
      "rightModuleId": 11,
      "pos": [
        42,
        1
      ]
    }
  ],
  "cables": [
    {
      "id": 0,
      "outputModuleId": 2,
      "outputId": 0,
      "inputModuleId": 1,
      "inputId": 0,
      "color": "#c9b70e"
    },
    {
      "id": 1,
      "outputModuleId": 2,
      "outputId": 0,
      "inputModuleId": 1,
      "inputId": 1,
      "color": "#0c8e15"
    },
    {
      "id": 2,
      "outputModuleId": 4,
      "outputId": 0,
      "inputModuleId": 2,
      "inputId": 1,
      "color": "#0986ad"
    },
    {
      "id": 3,
      "outputModuleId": 6,
      "outputId": 0,
      "inputModuleId": 2,
      "inputId": 5,
      "color": "#c9b70e"
    },
    {
      "id": 4,
      "outputModuleId": 2,
      "outputId": 1,
      "inputModuleId": 7,
      "inputId": 0,
      "color": "#0c8e15"
    },
    {
      "id": 5,
      "outputModuleId": 3,
      "outputId": 2,
      "inputModuleId": 4,
      "inputId": 3,
      "color": "#c91847"
    },
    {
      "id": 6,
      "outputModuleId": 12,
      "outputId": 0,
      "inputModuleId": 6,
      "inputId": 4,
      "color": "#c9b70e"
    },
    {
      "id": 15,
      "outputModuleId": 12,
      "outputId": 1,
      "inputModuleId": 16,
      "inputId": 2,
      "color": "#0986ad"
    },
    {
      "id": 16,
      "outputModuleId": 16,
      "outputId": 0,
      "inputModuleId": 15,
      "inputId": 2,
      "color": "#c9b70e"
    },
    {
      "id": 18,
      "outputModuleId": 17,
      "outputId": 0,
      "inputModuleId": 7,
      "inputId": 1,
      "color": "#0986ad"
    },
    {
      "id": 19,
      "outputModuleId": 11,
      "outputId": 0,
      "inputModuleId": 18,
      "inputId": 0,
      "color": "#c9b70e"
    },
    {
      "id": 20,
      "outputModuleId": 18,
      "outputId": 0,
      "inputModuleId": 4,
      "inputId": 1,
      "color": "#0c8e15"
    },
    {
      "id": 21,
      "outputModuleId": 11,
      "outputId": 1,
      "inputModuleId": 18,
      "inputId": 1,
      "color": "#c91847"
    },
    {
      "id": 22,
      "outputModuleId": 18,
      "outputId": 1,
      "inputModuleId": 4,
      "inputId": 2,
      "color": "#0986ad"
    },
    {
      "id": 24,
      "outputModuleId": 18,
      "outputId": 2,
      "inputModuleId": 6,
      "inputId": 3,
      "color": "#0c8e15"
    },
    {
      "id": 25,
      "outputModuleId": 11,
      "outputId": 2,
      "inputModuleId": 18,
      "inputId": 2,
      "color": "#c91847"
    },
    {
      "id": 29,
      "outputModuleId": 12,
      "outputId": 0,
      "inputModuleId": 20,
      "inputId": 1,
      "color": "#c91847"
    },
    {
      "id": 32,
      "outputModuleId": 22,
      "outputId": 2,
      "inputModuleId": 11,
      "inputId": 2,
      "color": "#0c8e15"
    },
    {
      "id": 33,
      "outputModuleId": 19,
      "outputId": 4,
      "inputModuleId": 12,
      "inputId": 0,
      "color": "#c91847"
    },
    {
      "id": 28,
      "outputModuleId": 20,
      "outputId": 1,
      "inputModuleId": 21,
      "inputId": 2,
      "color": "#0c8e15"
    },
    {
      "id": 30,
      "outputModuleId": 19,
      "outputId": 0,
      "inputModuleId": 21,
      "inputId": 0,
      "color": "#0986ad"
    },
    {
      "id": 27,
      "outputModuleId": 12,
      "outputId": 0,
      "inputModuleId": 20,
      "inputId": 0,
      "color": "#c9b70e"
    },
    {
      "id": 35,
      "outputModuleId": 22,
      "outputId": 0,
      "inputModuleId": 20,
      "inputId": 2,
      "color": "#c9b70e"
    },
    {
      "id": 37,
      "outputModuleId": 22,
      "outputId": 1,
      "inputModuleId": 20,
      "inputId": 3,
      "color": "#c91847"
    },
    {
      "id": 10,
      "outputModuleId": 15,
      "outputId": 0,
      "inputModuleId": 3,
      "inputId": 0,
      "color": "#0c8e15"
    }
  ]
}